<svg width="48" height="48" viewBox="0 0 48 48" fill="none" xmlns="http://www.w3.org/2000/svg">
<path fill-rule="evenodd" clip-rule="evenodd" d="M24 48C37.2548 48 48 37.2548 48 24C48 10.7452 37.2548 0 24 0C10.7452 0 0 10.7452 0 24C0 37.2548 10.7452 48 24 48ZM26.4631 24.5875C26.4745 24.6138 26.4911 24.6375 26.5121 24.6572L34.6146 32.7597C34.7373 32.8809 34.8348 33.0254 34.9013 33.1846C34.9678 33.3438 35.0021 33.5146 35.0021 33.6872C35.0021 33.8597 34.9678 34.0305 34.9013 34.1898C34.8348 34.349 34.7373 34.4934 34.6146 34.6147C34.3674 34.8583 34.0342 34.9949 33.6871 34.9949C33.34 34.9949 33.0068 34.8583 32.7596 34.6147L24.6571 26.5122C24.6367 26.491 24.6122 26.4742 24.5851 26.4627C24.5581 26.4511 24.529 26.4452 24.4996 26.4452C24.4702 26.4452 24.4411 26.4511 24.414 26.4627C24.3869 26.4742 24.3625 26.491 24.3421 26.5122L16.2396 34.6147C15.9924 34.8583 15.6592 34.9949 15.3121 34.9949C14.965 34.9949 14.6318 34.8583 14.3846 34.6147C14.2618 34.4934 14.1644 34.349 14.0978 34.1898C14.0313 34.0305 13.9971 33.8597 13.9971 33.6872C13.9971 33.5146 14.0313 33.3438 14.0978 33.1846C14.1644 33.0254 14.2618 32.8809 14.3846 32.7597L22.4871 24.6572C22.508 24.6375 22.5247 24.6138 22.5361 24.5875C22.5475 24.5611 22.5534 24.5327 22.5534 24.504C22.5534 24.4753 22.5475 24.4469 22.5361 24.4206C22.5247 24.3943 22.508 24.3706 22.4871 24.3509L14.3846 16.2397C14.2618 16.1184 14.1644 15.974 14.0978 15.8148C14.0313 15.6555 13.9971 15.4847 13.9971 15.3122C13.9971 15.1396 14.0313 14.9688 14.0978 14.8096C14.1644 14.6504 14.2618 14.5059 14.3846 14.3847C14.6318 14.141 14.965 14.0044 15.3121 14.0044C15.6592 14.0044 15.9924 14.141 16.2396 14.3847L24.3421 22.4872C24.3625 22.5083 24.3869 22.5252 24.414 22.5367C24.4411 22.5482 24.4702 22.5541 24.4996 22.5541C24.529 22.5541 24.5581 22.5482 24.5851 22.5367C24.6122 22.5252 24.6367 22.5083 24.6571 22.4872L32.7596 14.3847C33.0068 14.141 33.34 14.0044 33.6871 14.0044C34.0342 14.0044 34.3674 14.141 34.6146 14.3847C34.7373 14.5059 34.8348 14.6504 34.9013 14.8096C34.9678 14.9688 35.0021 15.1396 35.0021 15.3122C35.0021 15.4847 34.9678 15.6555 34.9013 15.8148C34.8348 15.974 34.7373 16.1184 34.6146 16.2397L26.5121 24.3509C26.4911 24.3706 26.4745 24.3943 26.4631 24.4206C26.4517 24.4469 26.4458 24.4753 26.4458 24.504C26.4458 24.5327 26.4517 24.5611 26.4631 24.5875Z" fill="#B91C1C"/>
</svg>
