<svg width="91" height="44" viewBox="0 0 91 44" fill="none" xmlns="http://www.w3.org/2000/svg">
<rect x="0.79452" y="2.59493" width="89.2102" height="21.6988" rx="2.35778" fill="#FBFBFB"/>
<path d="M10.7369 6.85471V15.6651C10.7369 15.9229 10.7369 15.9229 10.4755 15.9229H7.39902C7.01222 15.9229 6.83673 15.7474 6.83673 15.3678C6.83673 13.9603 6.83673 12.5528 6.83673 11.1453C6.84026 11.0283 6.88317 10.916 6.9585 10.8265C8.19052 9.51572 9.43328 8.20849 10.6725 6.88694C10.6832 6.89052 10.694 6.88694 10.7369 6.85471Z" fill="#0367B4"/>
<path d="M7.22699 16.5318H16.023C16.2809 16.5318 16.2809 16.5318 16.2809 16.7789V19.8733C16.2809 20.2923 16.1376 20.4427 15.7258 20.4427C14.3183 20.4427 12.9107 20.4427 11.5032 20.4427C11.3929 20.4394 11.2869 20.3991 11.2024 20.3281C9.92024 19.1128 8.64524 17.8963 7.37741 16.6786C7.32727 16.6428 7.29146 16.5962 7.22699 16.5318Z" fill="#0367B4"/>
<path d="M16.9186 20.0022V11.2671C16.9186 10.9913 16.9186 10.9913 17.2015 10.9913H20.2708C20.6648 10.9913 20.8367 11.1632 20.8367 11.5643V15.7618C20.836 15.8664 20.7994 15.9676 20.7328 16.0483C19.5223 17.3376 18.301 18.6198 17.0869 19.9019C17.0511 19.9413 17.0224 19.9843 16.9902 20.0237L16.9186 20.0022Z" fill="#0367B4"/>
<path d="M20.3607 10.361H11.6757C11.382 10.361 11.382 10.361 11.382 10.0637C11.382 9.07163 11.382 8.07957 11.382 7.08751C11.382 6.59685 11.5325 6.44643 12.016 6.44643H16.106C16.1724 6.44333 16.2388 6.45451 16.3006 6.47922C16.3624 6.50394 16.4181 6.5416 16.4641 6.58968L20.239 10.1711C20.2855 10.2141 20.3393 10.2499 20.3858 10.2893L20.3607 10.361Z" fill="#0367B4"/>
<path d="M38.693 20.4443C42.0976 16.9434 46.8332 13.5945 49.5043 12.3299C49.0678 12.0295 48.4488 11.5882 47.7648 11.0615C44.4097 12.4041 40.4324 15.3821 36.8885 18.731C37.5106 19.328 38.1328 19.8473 38.693 20.4443Z" fill="#E31837"/>
<path d="M37.1396 10.9874C36.6413 10.6907 36.081 10.394 35.6477 10.1678C33.8883 11.2369 32.2051 12.4773 30.6151 13.8764C31.0484 14.1731 31.5436 14.5477 32.0419 14.8444C33.6653 13.4202 35.3686 12.1315 37.1396 10.9874Z" fill="#012169"/>
<path d="M40.1817 9.25917C38.8149 8.5319 37.4022 7.93542 35.9569 7.47533C35.4693 7.73221 34.9703 7.95631 34.4619 8.14659C35.9235 8.57775 37.3413 9.19957 38.6899 10.0009C39.1263 9.79692 39.7484 9.50023 40.1817 9.25917Z" fill="#E31837"/>
<path d="M32.9764 9.05145C31.257 10.0271 29.5952 11.1422 28.0026 12.3892C28.3771 12.6117 28.7485 12.7601 29.3087 13.0568C30.9055 11.7316 32.5885 10.5621 34.3414 9.55953C33.7812 9.34814 33.2859 9.1998 32.9764 9.05145Z" fill="#012169"/>
<path d="M41.6118 8.68062C42.0763 8.54014 42.5332 8.3655 42.9798 8.1577C41.6 7.42319 40.1645 6.84942 38.6931 6.44432C38.4424 6.5222 37.7645 6.74472 37.325 6.89306C38.7804 7.39372 40.2115 7.99049 41.6118 8.68062Z" fill="#E31837"/>
<path d="M33.6577 15.9755C34.156 16.3463 34.7162 16.8692 35.2733 17.2438C38.8172 13.9654 42.2962 11.4361 46.1496 9.94524C45.5894 9.64855 45.153 9.34816 44.5339 8.97729C42.1723 9.72273 38.257 11.6586 33.6577 15.9755Z" fill="#E31837"/>
<path d="M56.6701 6.44432H70.6701V20.4443H56.6701V6.44432Z" fill="#D21F32"/>
<path d="M57.885 12.2207C58.0464 12.1907 58.2132 12.2228 58.3521 12.3105C58.4909 12.3982 58.5915 12.535 58.6339 12.6936C58.8525 13.2849 59.8809 15.8362 59.8809 15.8362H60.6979L61.583 13.5393L62.5505 15.8362H63.303L64.6073 12.3855C64.6323 12.3277 64.6732 12.2782 64.7252 12.2427C64.7772 12.2071 64.8382 12.1871 64.9011 12.1848H65.7109C65.7416 12.1827 65.7724 12.1872 65.8012 12.1979C65.8299 12.2087 65.8561 12.2255 65.8778 12.2473C65.8995 12.269 65.9164 12.2952 65.9271 12.3239C65.9379 12.3527 65.9424 12.3835 65.9403 12.4141V15.1482C65.9419 15.18 65.9367 15.2118 65.9251 15.2414C65.9136 15.2711 65.8959 15.2979 65.8732 15.3203C65.8506 15.3426 65.8234 15.3599 65.7936 15.371C65.7638 15.3821 65.7319 15.3868 65.7002 15.3847H65.2021V15.8362H67.7749V15.3883H67.1299C67.0915 15.3916 67.0527 15.3864 67.0165 15.3731C66.9802 15.3599 66.9473 15.3389 66.92 15.3116C66.8927 15.2843 66.8717 15.2514 66.8584 15.2151C66.8452 15.1788 66.84 15.1401 66.8433 15.1016V13.9084H67.5133C67.5546 13.9074 67.5955 13.9148 67.6338 13.9301C67.6721 13.9454 67.7068 13.9684 67.736 13.9975C67.7651 14.0267 67.788 14.0614 67.8034 14.0997C67.8187 14.138 67.8261 14.1789 67.8251 14.2201V14.7505H68.1834V12.7223H67.8251V13.1487C67.8298 13.1954 67.8244 13.2426 67.8092 13.287C67.794 13.3313 67.7694 13.3719 67.7371 13.406C67.7047 13.44 67.6655 13.4666 67.6219 13.4841C67.5784 13.5015 67.5315 13.5094 67.4847 13.5071H66.8325V12.2027H68.2981C68.3944 12.1939 68.4915 12.2064 68.5824 12.2393C68.6734 12.2722 68.756 12.3247 68.8244 12.3931C68.8928 12.4615 68.9453 12.5441 68.9782 12.635C69.0111 12.726 69.0236 12.8231 69.0148 12.9194V13.3422H69.4806V11.7512H63.2134V12.1848H63.6685C63.6685 12.1848 63.9408 12.1346 63.9193 12.4392C63.6617 13.2341 63.3602 14.014 63.0163 14.7756C63.0163 14.7756 62.9805 14.8436 62.9124 14.7756C62.8443 14.7075 62.056 12.5754 62.056 12.5754C62.056 12.5754 61.823 12.2171 62.1921 12.2171C62.3473 12.2252 62.5028 12.2252 62.658 12.2171V11.7584H60.465V12.2063H60.9702C60.9702 12.2063 61.2533 12.1848 61.2533 12.6148C61.2527 12.7397 61.2219 12.8626 61.1637 12.9731L60.4471 14.7361C60.4471 14.7361 60.3575 14.9117 60.2966 14.7361C60.2356 14.5606 59.4509 12.5539 59.4509 12.5539C59.4509 12.5539 59.3076 12.2386 59.6157 12.2386H59.9956V11.7512H57.8742L57.885 12.2207Z" fill="white"/>
<path d="M81.7744 16.5076V14.3195H83.9625V12.5691H81.7744V10.3811H80.024V12.5691H77.836V14.3195H80.024V16.5076H81.7744Z" fill="#004B50"/>
<rect x="0.79452" y="2.59493" width="89.2102" height="21.6988" rx="2.35778" stroke="#E4E4E4" stroke-width="0.389821"/>
<path d="M8.9921 36.015L7.93041 32.3419H6.86871L8.29001 36.8798H9.69419L11.1155 32.3419H10.0538L8.9921 36.015ZM12.2912 31.7254C12.6508 31.7254 12.9334 31.4429 12.9334 31.0747C12.9334 30.7237 12.6508 30.4411 12.2912 30.4411C11.9231 30.4411 11.6491 30.7237 11.6491 31.0747C11.6491 31.4429 11.9231 31.7254 12.2912 31.7254ZM12.7964 36.8798V32.3419H11.7861V36.8798H12.7964ZM15.1868 36.9825C15.7947 36.9825 16.2314 36.7685 16.5482 36.3918V36.8798H17.5585V33.8403C17.5585 32.7957 16.9591 32.2392 15.8033 32.2392C14.6217 32.2392 14.0395 32.7957 13.8426 33.532L14.8272 33.7375C14.9299 33.3694 15.2039 33.0782 15.7519 33.0782C16.2656 33.0782 16.5482 33.3351 16.5482 33.7632V33.9944L15.0156 34.2256C14.1936 34.3454 13.6542 34.8506 13.6542 35.6212C13.6542 36.3661 14.1251 36.9825 15.1868 36.9825ZM15.3837 36.212C14.9642 36.212 14.6731 35.9979 14.6731 35.5955C14.6731 35.2787 14.8529 34.9619 15.3666 34.8848L16.5482 34.705V35.1074C16.5482 35.7239 16.043 36.212 15.3837 36.212Z" fill="#8A8A8A"/>
<path d="M42.4441 37.515V29.563H39.4258V27.6886H47.6659V29.563H44.6475V37.515H42.4441Z" fill="#004B50"/>
<path d="M47.3037 37.515V30.3866H49.2958V31.5226C49.7788 30.557 50.3824 30.3866 51.0465 30.3866H51.8313V32.2894H51.1672C50.2315 32.2894 49.3864 32.8006 49.3864 34.3626V37.515H47.3037Z" fill="#004B50"/>
<path d="M52.7671 34.9022V30.3866H54.8498V34.4762C54.8498 35.2998 55.2723 35.9246 56.1778 35.9246C57.023 35.9246 57.5663 35.2998 57.5663 34.4762V30.3866H59.649V37.515H57.687V36.6062C57.1739 37.3162 56.4495 37.657 55.4836 37.657C53.8235 37.6854 52.7671 36.6062 52.7671 34.9022Z" fill="#004B50"/>
<path d="M60.5242 35.527L62.3352 35.1294C62.4258 35.669 62.8785 36.095 63.784 36.095C64.4783 36.095 64.8706 35.8394 64.8706 35.4986C64.8706 35.243 64.7197 35.0158 63.9953 34.8738L62.8182 34.6182C61.309 34.3058 60.6449 33.6526 60.6449 32.4598C60.6449 31.2386 61.7315 30.2446 63.7237 30.2446C65.8667 30.2446 66.742 31.4658 66.8024 32.261L64.9914 32.6302C64.9008 32.2042 64.5688 31.7498 63.6633 31.7498C63.0898 31.7498 62.6672 32.0054 62.6672 32.3462C62.6672 32.6302 62.8785 32.8006 63.2407 32.8858L64.9612 33.255C66.2893 33.539 66.8929 34.2774 66.8929 35.3282C66.8929 36.4642 65.9271 37.657 63.7539 37.657C61.3995 37.657 60.6148 36.2938 60.5242 35.527Z" fill="#004B50"/>
<path d="M70.9374 37.5151C69.5791 37.5151 68.7038 36.8051 68.7038 35.4419V32.0907H67.4361V30.3867H68.7038V28.7963L70.7864 28.2283V30.3867H72.3258V32.0907H70.7864V35.0727C70.7864 35.5839 71.0581 35.8111 71.6316 35.8111H72.4465V37.5151H70.9374Z" fill="#004B50"/>
<path d="M73.5332 37.515V27.6886H75.6159V37.515H73.5332Z" fill="#004B50"/>
<path d="M81.8641 30.3866H84.0675L80.8982 40.071H78.6948L79.5701 37.515H78.4232L76.3405 30.3866H78.5439L80.1134 35.8962L81.8641 30.3866Z" fill="#004B50"/>
<path d="M21.6174 32.0054H26.477V28.3418L30.3707 32.0054L26.477 35.6406V37.515H31.1856V32.0054H35.5321V27.6886H21.6174V32.0054Z" fill="#004B50"/>
</svg>
