<svg width="48" height="48" viewBox="0 0 48 48" fill="none" xmlns="http://www.w3.org/2000/svg">
<g clip-path="url(#clip0_40_8677)">
<path d="M24 0C19.2533 0 14.6131 1.40758 10.6663 4.04473C6.71955 6.68188 3.64341 10.4302 1.8269 14.8156C0.0103989 19.201 -0.464881 24.0266 0.461164 28.6822C1.38721 33.3377 3.67299 37.6141 7.02945 40.9706C10.3859 44.327 14.6623 46.6128 19.3178 47.5388C23.9734 48.4649 28.799 47.9896 33.1844 46.1731C37.5698 44.3566 41.3181 41.2805 43.9553 37.3337C46.5924 33.3869 48 28.7468 48 24C48 17.6348 45.4715 11.5303 40.9706 7.02944C36.4697 2.52856 30.3652 0 24 0V0ZM37.86 16.4L24.16 34.98C24.0006 35.1972 23.7989 35.38 23.5671 35.5174C23.3353 35.6548 23.0781 35.7439 22.811 35.7794C22.5439 35.8149 22.2723 35.796 22.0127 35.7239C21.753 35.6519 21.5106 35.5281 21.3 35.36L11.52 27.54C11.3146 27.375 11.1437 27.1709 11.0174 26.9397C10.8911 26.7084 10.8117 26.4544 10.7838 26.1924C10.7559 25.9303 10.7801 25.6653 10.855 25.4126C10.9298 25.16 11.0539 24.9246 11.22 24.72C11.5523 24.3167 12.0293 24.0595 12.5489 24.0035C13.0684 23.9474 13.5893 24.0969 14 24.42L22.16 30.94L34.64 14C34.9549 13.5783 35.4234 13.2977 35.9438 13.2191C36.4642 13.1405 36.9946 13.2701 37.42 13.58C37.636 13.7347 37.8191 13.9309 37.9584 14.1572C38.0978 14.3834 38.1906 14.6352 38.2316 14.8977C38.2726 15.1602 38.2608 15.4283 38.197 15.6862C38.1332 15.9442 38.0186 16.1868 37.86 16.4Z" fill="#004C51"/>
</g>
<defs>
<clipPath id="clip0_40_8677">
<rect width="48" height="48" fill="white"/>
</clipPath>
</defs>
</svg>
