<svg width="60" height="60" viewBox="0 0 60 60" fill="none" xmlns="http://www.w3.org/2000/svg">
<rect width="60" height="60" rx="30" fill="#007B74"/>
<path d="M36.8369 36.0527C36.8369 37.3223 36.5293 38.4258 35.9141 39.3633C35.2988 40.3008 34.4004 41.0234 33.2188 41.5312C32.0469 42.0391 30.6211 42.293 28.9414 42.293C28.1992 42.293 27.4717 42.2441 26.7588 42.1465C26.0557 42.0488 25.377 41.9072 24.7227 41.7217C24.0781 41.5264 23.4629 41.2871 22.877 41.0039V36.7852C23.8926 37.2344 24.9473 37.6396 26.041 38.001C27.1348 38.3623 28.2188 38.543 29.293 38.543C30.0352 38.543 30.6309 38.4453 31.0801 38.25C31.5391 38.0547 31.8711 37.7861 32.0762 37.4443C32.2812 37.1025 32.3838 36.7119 32.3838 36.2725C32.3838 35.7354 32.2031 35.2764 31.8418 34.8955C31.4805 34.5146 30.9824 34.1582 30.3477 33.8262C29.7227 33.4941 29.0146 33.1377 28.2236 32.7568C27.7256 32.5225 27.1836 32.2393 26.5977 31.9072C26.0117 31.5654 25.4551 31.1504 24.9277 30.6621C24.4004 30.1738 23.9658 29.583 23.624 28.8896C23.292 28.1865 23.126 27.3467 23.126 26.3701C23.126 25.0908 23.4189 23.9971 24.0049 23.0889C24.5908 22.1807 25.4258 21.4873 26.5098 21.0088C27.6035 20.5205 28.8926 20.2764 30.377 20.2764C31.4902 20.2764 32.5498 20.4082 33.5557 20.6719C34.5713 20.9258 35.6309 21.2969 36.7344 21.7852L35.2695 25.3154C34.2832 24.915 33.3994 24.6074 32.6182 24.3926C31.8369 24.168 31.041 24.0557 30.2305 24.0557C29.6641 24.0557 29.1807 24.1484 28.7803 24.334C28.3799 24.5098 28.0771 24.7637 27.8721 25.0957C27.667 25.418 27.5645 25.7939 27.5645 26.2236C27.5645 26.7314 27.7109 27.1611 28.0039 27.5127C28.3066 27.8545 28.7559 28.1865 29.3516 28.5088C29.957 28.8311 30.709 29.207 31.6074 29.6367C32.7012 30.1543 33.6338 30.6963 34.4053 31.2627C35.1865 31.8193 35.7871 32.4785 36.207 33.2402C36.627 33.9922 36.8369 34.9297 36.8369 36.0527Z" fill="white"/>
</svg>
